<?xml version="1.0" encoding="utf-8"?>
<svg viewBox="0 0 920 180" xmlns="http://www.w3.org/2000/svg">
  <path d="M 34.334 43.577 C 42.462 43.577 49.024 44.424 54.019 46.117 C 59.014 47.81 62.676 50.922 65.005 55.452 C 67.333 59.981 68.497 66.522 68.497 75.073 L 68.497 106.061 L 50.082 106.061 L 49.447 100.219 L 49.066 100.219 C 47.457 102.336 44.96 104.029 41.573 105.299 C 38.186 106.569 33.784 107.204 28.365 107.204 C 13.718 107.204 6.394 100.346 6.394 86.63 C 6.394 80.788 8.32 76.195 12.173 72.851 C 16.025 69.506 22.1 67.834 30.397 67.834 L 49.193 67.834 C 48.6 64.278 47.076 61.886 44.621 60.659 C 42.166 59.431 37.975 58.817 32.048 58.817 C 28.323 58.817 24.661 59.092 21.063 59.643 C 17.464 60.193 14.31 60.807 11.601 61.484 L 11.22 61.23 L 11.347 46.498 C 13.04 45.99 15.199 45.503 17.824 45.038 C 20.449 44.572 23.222 44.212 26.143 43.958 C 29.064 43.704 31.794 43.577 34.334 43.577 Z M 33.572 92.218 C 38.821 92.218 42.758 91.562 45.383 90.25 C 48.008 88.937 49.362 86.842 49.447 83.963 L 49.447 80.788 L 35.096 80.788 C 31.371 80.788 28.767 81.317 27.286 82.376 C 25.804 83.434 25.063 84.852 25.063 86.63 C 25.063 88.747 25.825 90.207 27.349 91.012 C 28.873 91.816 30.947 92.218 33.572 92.218 Z" style="fill: #fa4e3f; white-space: pre;"/>
  <path d="M 102.143 107.204 C 94.354 107.204 88.808 105.13 85.506 100.981 C 82.204 96.832 80.553 90.906 80.553 83.201 L 80.553 44.212 L 100.873 44.212 L 101 78.248 C 101 82.058 101.677 84.746 103.032 86.313 C 104.387 87.879 107.138 88.662 111.287 88.662 C 115.266 88.662 117.955 87.964 119.352 86.567 C 120.749 85.17 121.489 82.778 121.574 79.391 L 121.574 44.212 L 141.894 44.212 L 141.894 106.061 L 122.59 106.061 L 121.574 99.076 L 121.193 99.076 C 120.092 101.531 117.849 103.5 114.462 104.982 C 111.075 106.463 106.969 107.204 102.143 107.204 Z" style="fill: #fa4e3f; white-space: pre;"/>
  <path d="M 158.406 87.519 L 158.406 60.849 L 150.786 60.849 L 150.786 44.339 L 160.311 44.339 L 164.121 29.226 L 178.726 29.226 L 178.726 44.339 L 192.569 44.339 L 192.569 60.849 L 178.726 60.849 L 178.726 83.074 C 178.726 85.445 179.022 87.075 179.615 87.964 C 180.208 88.853 181.562 89.297 183.679 89.297 C 185.034 89.297 186.473 89.234 187.997 89.107 C 189.521 88.98 191.045 88.831 192.569 88.662 L 192.95 88.916 L 192.95 105.426 C 188.886 106.611 183.51 107.204 176.821 107.204 C 170.132 107.204 165.391 105.68 162.597 102.632 C 159.803 99.584 158.406 94.546 158.406 87.519 Z" style="fill: #fa4e3f; white-space: pre;"/>
  <path d="M 199.941 75.581 C 199.941 64.236 202.354 56.065 207.18 51.07 C 212.006 46.075 220.176 43.577 231.691 43.577 C 239.396 43.577 245.576 44.678 250.233 46.879 C 254.89 49.08 258.255 52.531 260.329 57.23 C 262.404 61.929 263.441 68.046 263.441 75.581 C 263.441 83.032 262.404 89.085 260.329 93.742 C 258.255 98.399 254.89 101.807 250.233 103.966 C 245.576 106.125 239.396 107.204 231.691 107.204 C 220.176 107.204 212.006 104.728 207.18 99.775 C 202.354 94.822 199.941 86.757 199.941 75.581 Z M 231.691 89.805 C 236.602 89.805 239.925 88.726 241.66 86.567 C 243.396 84.408 244.264 80.619 244.264 75.2 C 244.264 70.035 243.396 66.331 241.66 64.088 C 239.925 61.844 236.602 60.722 231.691 60.722 C 226.95 60.722 223.669 61.844 221.848 64.088 C 220.028 66.331 219.118 70.035 219.118 75.2 C 219.118 80.619 220.028 84.408 221.848 86.567 C 223.669 88.726 226.95 89.805 231.691 89.805 Z" style="fill: #fa4e3f; white-space: pre;"/>
  <path d="M 332.812 152.4 L 300.812 152.4 L 301.163 49.325 L 281.381 25.972 L 361.212 25.8 C 377.079 25.8 388.645 29.367 395.912 36.5 C 403.179 43.633 406.812 54.133 406.812 68 C 406.812 78.4 404.212 87.3 399.012 94.7 C 393.812 102.1 386.945 106.733 378.412 108.6 L 378.212 109.2 C 381.545 111.333 385.212 114.867 389.212 119.8 C 393.212 124.733 397.179 130.1 401.112 135.9 C 405.045 141.7 408.545 147.133 411.612 152.2 L 411.612 152.4 L 374.412 152.4 L 352.812 120.4 C 350.945 117.6 349.445 115.6 348.312 114.4 C 347.179 113.2 345.845 112.467 344.312 112.2 C 342.779 111.933 340.345 111.8 337.012 111.8 L 332.812 111.8 L 332.812 152.4 Z M 356.012 51.8 L 332.812 51.8 L 332.812 85.8 L 356.012 85.8 C 362.679 85.8 367.312 84.467 369.912 81.8 C 372.512 79.133 373.812 74.8 373.812 68.8 C 373.812 62.8 372.512 58.467 369.912 55.8 C 367.312 53.133 362.679 51.8 356.012 51.8 Z" style="white-space: pre; fill: rgb(245, 245, 245);"/>
  <path d="M 515.612 149.2 C 511.879 150.533 506.712 151.7 500.112 152.7 C 493.512 153.7 485.679 154.2 476.612 154.2 C 465.145 154.2 455.379 152.7 447.312 149.7 C 439.245 146.7 433.145 141.567 429.012 134.3 C 424.879 127.033 422.812 116.933 422.812 104 C 422.812 86.4 426.845 73.667 434.912 65.8 C 442.979 57.933 455.479 54 472.412 54 C 484.545 54 494.112 55.733 501.112 59.2 C 508.112 62.667 513.112 67.567 516.112 73.9 C 519.112 80.233 520.612 87.733 520.612 96.4 C 520.612 98.933 520.512 101.667 520.312 104.6 C 520.112 107.533 519.745 110.4 519.212 113.2 L 518.412 114 L 452.612 114 C 453.545 119.867 456.312 123.733 460.912 125.6 C 465.512 127.467 473.012 128.4 483.412 128.4 C 490.345 128.4 496.112 128.233 500.712 127.9 C 505.312 127.567 510.012 127.067 514.812 126.4 L 515.612 127 L 515.612 149.2 Z M 492.812 93 C 492.812 89.8 492.312 87.033 491.312 84.7 C 490.312 82.367 488.345 80.567 485.412 79.3 C 482.479 78.033 478.145 77.4 472.412 77.4 C 464.012 77.4 458.512 78.833 455.912 81.7 C 453.312 84.567 452.012 88.333 452.012 93 L 492.812 93 Z" style="fill: rgb(245, 245, 245); white-space: pre;"/>
  <path d="M 569.609 152.4 L 537.609 152.4 L 537.609 55 L 568.009 55 L 569.609 72.8 L 570.209 72.8 C 572.076 66.8 575.409 62.167 580.209 58.9 C 585.009 55.633 591.676 54 600.209 54 C 611.809 54 620.376 57.267 625.909 63.8 C 631.442 70.333 634.209 81.667 634.209 97.8 L 634.209 152.4 L 602.209 152.4 L 602.009 104 C 602.009 96.533 600.876 91.2 598.609 88 C 596.342 84.8 592.076 83.2 585.809 83.2 C 579.942 83.2 575.809 84.633 573.409 87.5 C 571.009 90.367 569.742 95.267 569.609 102.2 L 569.609 152.4 Z" style="fill: rgb(245, 245, 245); white-space: pre;"/>
  <path d="M 658.203 123.2 L 658.203 81.2 L 646.203 81.2 L 646.203 55.2 L 661.203 55.2 L 667.203 31.4 L 690.203 31.4 L 690.203 55.2 L 712.003 55.2 L 712.003 81.2 L 690.203 81.2 L 690.203 116.2 C 690.203 119.933 690.67 122.5 691.603 123.9 C 692.536 125.3 694.67 126 698.003 126 C 700.136 126 702.403 125.9 704.803 125.7 C 707.203 125.5 709.603 125.267 712.003 125 L 712.603 125.4 L 712.603 151.4 C 706.203 153.267 697.736 154.2 687.203 154.2 C 676.67 154.2 669.203 151.8 664.803 147 C 660.403 142.2 658.203 134.267 658.203 123.2 Z" style="fill: rgb(245, 245, 245); white-space: pre;"/>
  <path d="M 816.409 149.2 C 812.676 150.533 807.509 151.7 800.909 152.7 C 794.309 153.7 786.476 154.2 777.409 154.2 C 765.942 154.2 756.176 152.7 748.109 149.7 C 740.042 146.7 733.942 141.567 729.809 134.3 C 725.676 127.033 723.609 116.933 723.609 104 C 723.609 86.4 727.642 73.667 735.709 65.8 C 743.776 57.933 756.276 54 773.209 54 C 785.342 54 794.909 55.733 801.909 59.2 C 808.909 62.667 813.909 67.567 816.909 73.9 C 819.909 80.233 821.409 87.733 821.409 96.4 C 821.409 98.933 821.309 101.667 821.109 104.6 C 820.909 107.533 820.542 110.4 820.009 113.2 L 819.209 114 L 753.409 114 C 754.342 119.867 757.109 123.733 761.709 125.6 C 766.309 127.467 773.809 128.4 784.209 128.4 C 791.142 128.4 796.909 128.233 801.509 127.9 C 806.109 127.567 810.809 127.067 815.609 126.4 L 816.409 127 L 816.409 149.2 Z M 793.609 93 C 793.609 89.8 793.109 87.033 792.109 84.7 C 791.109 82.367 789.142 80.567 786.209 79.3 C 783.276 78.033 778.942 77.4 773.209 77.4 C 764.809 77.4 759.309 78.833 756.709 81.7 C 754.109 84.567 752.809 88.333 752.809 93 L 793.609 93 Z" style="fill: rgb(245, 245, 245); white-space: pre;"/>
  <path d="M 870.406 152.4 L 838.406 152.4 L 838.406 55 L 864.406 55 L 867.006 75 L 867.606 75 C 868.806 67.533 871.673 62.167 876.206 58.9 C 880.739 55.633 887.473 54 896.406 54 C 900.006 54 903.273 54.167 906.206 54.5 C 909.139 54.833 911.606 55.133 913.606 55.4 L 913.606 86.6 L 913.206 87 C 911.073 86.467 908.639 86 905.906 85.6 C 903.173 85.2 900.073 85 896.606 85 C 891.673 85 887.239 85.8 883.306 87.4 C 879.373 89 876.306 92.1 874.106 96.7 C 871.906 101.3 870.806 108.133 870.806 117.2 L 870.406 152.4 Z" style="fill: rgb(245, 245, 245); white-space: pre;"/>
</svg>